<svg xmlns="http://www.w3.org/2000/svg" viewBox="0 0 24 24"><defs><style>.cls-1,.cls-2{fill:none;}.cls-1{stroke:#323232;stroke-linecap:round;stroke-linejoin:round;stroke-width:1.5px;}</style></defs><g id="Layer_2" data-name="Layer 2"><g id="Icons"><path class="cls-1" d="M17.05,19.87h-1a1.84,1.84,0,0,0-.77.17L11.44,21.8"/><path class="cls-1" d="M13,16.43l1,.91a1.5,1.5,0,0,1,0,2.22l-2.14,2a1.84,1.84,0,0,1-2.48,0L8.08,20.36A1.9,1.9,0,0,0,7,19.87"/><path class="cls-1" d="M3,10.71l7.94-6.8a1.64,1.64,0,0,1,2.12,0L21,10.71"/><path class="cls-1" d="M19.71,9.61V3.82A.82.82,0,0,0,18.9,3H16.44a.82.82,0,0,0-.82.82V6.11"/><path class="cls-1" d="M21,14H18.5A1.5,1.5,0,0,0,17,15.5v4A1.5,1.5,0,0,0,18.5,21H21"/><path class="cls-1" d="M3,21H5.5A1.5,1.5,0,0,0,7,19.5v-4A1.5,1.5,0,0,0,5.5,14H3"/><path class="cls-1" d="M17.51,14.37,14.35,13a1.83,1.83,0,0,0-1.74.14L10.2,14.68a1.39,1.39,0,0,0-.41,1.92,1.49,1.49,0,0,0,.23.27h0a1.39,1.39,0,0,0,1.52.23L13,16.43"/><path class="cls-1" d="M6.92,15l2.22-.81a1.87,1.87,0,0,1,1.55.16"/><rect class="cls-2" width="24" height="24"/></g></g></svg>